<svg width="120" height="120" viewBox="0 0 120 120" fill="none" xmlns="http://www.w3.org/2000/svg">
<path d="M89.6279 21.6518C89.6056 21.6918 89.494 21.9154 89.4716 21.9588C87.8356 24.9453 85.0291 24.7017 85.0291 24.7017H70.2502V21.6518H49.6478V24.6984H34.9933C34.9933 24.6984 32.3111 24.952 30.4231 21.872C30.4167 21.8587 30.3274 21.6618 30.321 21.6484H16.5882V25.2556C16.5882 25.2556 21.8855 26.9708 21.8855 31.7226V37.1484H98.1623V31.6992C98.1623 27.0809 103.425 25.2957 103.425 25.2957V21.6518H89.6279Z" fill="white"/>
<path d="M56.5142 67.9248C56.5142 67.9248 57.9557 70.5376 60.6219 70.6644C63.2881 70.7912 64.2417 67.778 64.0152 67.1974C63.8334 66.7302 63.1669 66.7435 63.1669 66.7435H52.1513C50.5758 66.7435 49.3639 68.8024 48.758 70.3107C48.152 71.8323 51.2551 74.3384 51.2551 74.3384L52.2247 72.4363L53.7395 72.423L48.758 83.3347H24.1563C24.641 84.4726 26.8225 85.3602 26.8225 85.3602H50.3303L55.9911 71.3251H50.6938C50.528 71.3418 50.225 70.8046 50.1931 70.7078C50.1644 70.611 50.2091 70.4375 50.2091 70.4375C50.2091 70.4375 51.2392 68.0282 52.0875 67.9014L56.511 67.9215L56.5142 67.9248ZM60.5326 69.2195C60.5326 69.2195 59.4738 69.4765 58.6541 67.9248H62.2707C62.2707 67.9248 62.1432 69.0293 60.5326 69.2195Z" fill="white"/>
<path d="M95.713 83.338C95.2282 84.4759 93.0595 85.3635 93.0595 85.3635H69.3476L66.1999 66.6201C66.1999 66.6201 65.9575 64.1741 64.1396 63.9205H53.3632L54.8175 62.7793H64.5C64.5 62.7793 67.1662 62.816 67.8933 66.1129C68.6205 69.4097 71.0315 83.338 71.0315 83.338H95.713Z" fill="white"/>
<path d="M53.242 50.7197H61.3586L62.4142 48.5306H54.3327L53.242 50.7197Z" fill="white"/>
<path d="M51.1403 55.695H59.2186L60.1626 53.506H52.0748L51.1403 55.695Z" fill="white"/>
<path d="M77.7193 38.7468H58.7817L57.8186 40.7756H78.6155L77.7193 38.7468Z" fill="white"/>
<path d="M80.832 45.741L79.8816 43.5653H56.5142L55.5064 45.6275L80.832 45.741Z" fill="white"/>
<path d="M82.0057 48.5306H65.6354L66.6878 50.7197H83.0549L82.0057 48.5306Z" fill="white"/>
<path d="M84.27 53.506H67.8264L68.8788 55.695H85.1279L84.27 53.506Z" fill="white"/>
<path d="M95.3271 78.3694H78.8132L79.8657 80.5584H96.2488L95.3271 78.3694Z" fill="white"/>
<path d="M93.1488 73.4975H76.6701L77.6556 75.6831H94.0992L93.1488 73.4975Z" fill="white"/>
<path d="M90.7537 68.4287H74.4025L75.455 70.601H91.8062L90.7537 68.4287Z" fill="white"/>
<path d="M88.5627 63.45H72.2339L73.2863 65.6357H89.5259L88.5627 63.45Z" fill="white"/>
<path d="M24.7495 78.3694H41.1293L40.1949 80.5584H23.8278L24.7495 78.3694Z" fill="white"/>
<path d="M26.8831 73.4975H43.3267L42.4018 75.6831H25.9359L26.8831 73.4975Z" fill="white"/>
<path d="M29.2303 68.4287H45.54L44.4876 70.601H28.1811L29.2303 68.4287Z" fill="white"/>
<path d="M31.4054 63.45H47.7661L46.7137 65.6357H30.4422L31.4054 63.45Z" fill="white"/>
<path d="M86.3685 58.5514H70.078L71.1176 60.7371H87.421L86.3685 58.5514Z" fill="white"/>
<path d="M33.5167 58.5547L32.6205 60.7438H56.9479L58.0004 58.5547H33.5167Z" fill="white"/>
<path d="M55.5638 38.7468H42.4114L34.8147 55.695H47.967L55.5638 38.7468Z" fill="white"/>
<path fill-rule="evenodd" clip-rule="evenodd" d="M54.0042 79.9244V80.5884H54.9451V85.3669H55.5797V79.9244H54.0042Z" fill="white"/>
<path fill-rule="evenodd" clip-rule="evenodd" d="M64.3469 79.9511V80.6151H66.5921V81.0356L64.5287 85.3635H65.2335L67.2969 81.0356V79.9511H64.3469Z" fill="white"/>
<path fill-rule="evenodd" clip-rule="evenodd" d="M60 81.793C60 80.7486 59.1931 79.9043 58.1949 79.9043C57.1967 79.9043 56.4025 80.7519 56.4025 81.793C56.4025 82.8341 57.2094 83.6684 58.1949 83.6684C58.2842 83.6684 58.3703 83.6617 58.4532 83.6484L57.388 85.3602H58.0992L59.6428 82.9142C59.866 82.6006 60 82.2135 60 81.7897V81.793ZM57.0563 81.793C57.0563 81.129 57.5698 80.5917 58.1917 80.5917C58.8136 80.5917 59.3398 81.129 59.3398 81.793C59.3398 82.4571 58.8264 82.991 58.1917 82.991C57.557 82.991 57.0563 82.4537 57.0563 81.793Z" fill="white"/>
<path fill-rule="evenodd" clip-rule="evenodd" d="M63.1573 82.4938C63.4826 82.2202 63.6899 81.8064 63.6899 81.3459C63.6899 80.5217 63.033 79.8543 62.2165 79.8543C61.4001 79.8543 60.7463 80.5217 60.7463 81.3459C60.7463 81.8064 60.9504 82.2202 61.2757 82.4938C60.8611 82.7941 60.5868 83.2746 60.5868 83.8319C60.5868 84.7462 61.3171 85.487 62.2165 85.487C63.1159 85.487 63.8462 84.7462 63.8462 83.8319C63.8462 83.2746 63.5751 82.7941 63.1573 82.4938ZM62.2165 80.505C62.6726 80.505 63.0457 80.8821 63.0457 81.3459C63.0457 81.8097 62.6758 82.1868 62.2165 82.1868C61.7573 82.1868 61.3905 81.8097 61.3905 81.3459C61.3905 80.8821 61.7605 80.505 62.2165 80.505ZM62.2165 84.833C61.6743 84.833 61.2342 84.3858 61.2342 83.8319C61.2342 83.278 61.6743 82.8442 62.2165 82.8442C62.7587 82.8442 63.202 83.2813 63.202 83.8319C63.202 84.3825 62.7619 84.833 62.2165 84.833Z" fill="white"/>
<path d="M88.6807 20L88.5659 20.2503C88.5532 20.2803 87.1945 23.1567 84.7867 23.0433H71.9405V20H48.0595V23.0433H35.2133C32.8055 23.1567 31.4468 20.2803 31.4341 20.2503L31.3193 20H15V26.6405L15.3412 26.7105C15.3891 26.7206 20.2271 27.8084 20.2973 31.8627C20.2973 31.8561 20.2973 82.2602 20.2973 87.062C20.2973 87.299 20.3005 87.5058 20.3133 87.6093C20.4408 88.8406 21.5156 94.5734 28.5542 98.7246C35.8767 103.056 41.3143 103.69 47.4185 104.811L47.9575 104.901C53.1081 105.759 58.0673 107.347 60.0032 110C61.939 107.344 66.8983 105.759 72.0489 104.901L72.5879 104.811C78.6889 103.69 84.1265 103.053 91.449 98.7246C98.4876 94.5768 99.5624 88.8439 99.6899 87.6093C99.6995 87.5058 99.7059 87.2956 99.7059 87.062C99.7059 82.2602 99.7059 31.8561 99.7059 31.8627C99.7728 27.8084 104.611 26.7206 104.662 26.7105L105 26.6405V20H88.6807ZM104.203 25.6627L104.164 25.9798C102.933 26.3368 98.9755 27.8151 98.9086 31.8527V86.9152C98.9086 86.9152 98.9054 87.2189 98.8831 87.4091C98.7363 88.8373 97.7509 93.9561 91.4043 97.6934C84.2094 101.948 77.697 103.029 72.4571 103.9L71.9181 103.99C66.8313 104.834 62.0539 106.356 60.0255 108.412L59.9968 108.442L59.9681 108.412C57.9398 106.356 53.1623 104.834 48.0755 103.99L47.5365 103.9C42.2966 103.029 35.7842 101.948 28.5893 97.6934C22.2459 93.9561 21.2573 88.8373 21.1106 87.4091C21.0914 87.2189 21.085 86.9152 21.085 86.9152V31.8527C21.0181 27.8151 17.0602 26.3368 15.8292 25.9798L15.7909 25.6627V20.8175H30.8313L30.8473 20.8543C31.2395 21.5917 32.7193 23.9843 35.2484 23.8675H48.8536V20.8276H71.14V23.8708H84.7452C87.2743 23.9876 88.7509 21.5917 89.1432 20.8576L89.1591 20.8209H104.2V25.6661L104.203 25.6627Z" fill="white"/>
<path d="M36.4189 92.955C36.0648 92.7748 35.7108 92.7915 35.3568 93.0118C35.0028 93.232 34.703 93.6091 34.4543 94.1396C34.2023 94.6702 34.1035 95.1507 34.1545 95.5745C34.2055 96.0016 34.4096 96.302 34.7636 96.4855C35.1208 96.669 35.4748 96.6523 35.8257 96.4321C36.1765 96.2152 36.4763 95.8348 36.725 95.3042H36.7314C36.9833 94.7703 37.079 94.2931 37.0312 93.866C36.9802 93.4422 36.776 93.1386 36.4189 92.955Z" fill="white"/>
<path d="M78.6889 96.9326C78.6474 96.8025 78.5836 96.6857 78.4975 96.5956C78.4082 96.5055 78.3062 96.4421 78.1786 96.4021C78.0542 96.3654 77.866 96.3854 77.6173 96.4688L77.0496 96.659L77.5376 98.2607L78.067 98.0839C78.2902 98.0105 78.4497 97.917 78.5422 97.8069C78.6378 97.6934 78.6984 97.56 78.7239 97.3998H78.7208C78.7463 97.2396 78.7335 97.0828 78.6889 96.9326Z" fill="white"/>
<path d="M32.4291 90.8695L31.8614 90.5224L30.1329 93.6424L30.7133 93.9961C31.0578 94.203 31.3416 94.3098 31.5776 94.3098C31.8136 94.3131 32.04 94.2297 32.2601 94.0595C32.4802 93.8894 32.6843 93.6324 32.8756 93.2921C33.0638 92.9484 33.1882 92.628 33.2392 92.3277C33.2902 92.0307 33.2615 91.7704 33.1531 91.5468C33.0446 91.3233 32.8023 91.0964 32.4291 90.8695Z" fill="white"/>
<path d="M98.0156 88.4302H22.1088C21.9525 87.6994 22.415 93.2453 29.0932 97.1796C36.151 101.354 42.5804 102.615 47.7374 103.473L48.2764 103.563C53.175 104.377 57.6751 105.512 60.0638 107.507C62.4525 105.512 66.9557 104.377 71.8512 103.563L72.3901 103.473C77.5471 102.615 83.9766 101.354 91.0344 97.1796C97.7126 93.2453 98.175 87.6994 98.0156 88.4302ZM32.6492 94.4867C32.3685 94.7069 32.056 94.8304 31.7211 94.8537C31.3862 94.8771 30.9844 94.7436 30.5092 94.4533L29.3994 93.7759L31.5935 89.825L32.6364 90.4623C33.1435 90.7727 33.4752 91.073 33.6315 91.36H33.6283C33.7814 91.6436 33.842 91.9773 33.8101 92.3544C33.7782 92.7315 33.641 93.1319 33.405 93.559C33.185 93.9594 32.9298 94.2664 32.6492 94.4867ZM36.0361 96.9426C35.5482 97.1529 35.0602 97.1362 34.5691 96.8993C34.078 96.649 33.7654 96.2552 33.6315 95.718C33.4975 95.1808 33.5964 94.5634 33.9217 93.8693C34.247 93.1753 34.6552 92.7181 35.14 92.4979C35.6279 92.281 36.1159 92.2976 36.607 92.5479C37.0982 92.7982 37.4043 93.1919 37.5383 93.7258C37.6722 94.2631 37.5765 94.8804 37.2512 95.5778C36.9323 96.2753 36.5241 96.7324 36.0361 96.9426ZM39.5985 99.0482L38.916 95.2475L38.8777 94.8337L38.7566 95.1807L37.5829 98.194L37.1045 97.9871L38.7406 93.7626L39.2636 93.9828L39.9461 97.7669L39.9844 98.1773L40.1024 97.8369L41.2729 94.837L41.7576 95.0406L40.1152 99.2685L39.5985 99.0482ZM44.1017 100.456C43.5914 100.523 43.1354 100.49 42.7399 100.353C42.3221 100.209 42.0159 100.009 41.8118 99.7456C41.6077 99.4854 41.4802 99.165 41.4323 98.788C41.3813 98.4109 41.4323 97.9671 41.595 97.4599C41.7768 96.8993 41.9872 96.4788 42.2328 96.2119C42.4784 95.9449 42.759 95.7647 43.0811 95.6779C43.4001 95.5878 43.7413 95.6079 44.1049 95.7313C44.3536 95.8148 44.5641 95.9349 44.7427 96.0884C44.9213 96.2385 45.0425 96.4221 45.1095 96.629C45.1765 96.8359 45.186 97.0094 45.1318 97.1762L45.1254 97.2029L44.6247 97.0294L44.6343 97.0027C44.6662 96.9126 44.6566 96.8092 44.612 96.6957C44.5673 96.5823 44.4908 96.4788 44.3855 96.392C44.2803 96.302 44.1527 96.2285 43.9996 96.1751C43.5946 96.035 43.2374 96.0951 42.9185 96.352C42.6028 96.6089 42.354 97.016 42.169 97.5967C41.9872 98.174 41.9522 98.6712 42.0638 99.0816C42.1754 99.492 42.4274 99.7657 42.826 99.9025C43.0588 99.9826 43.3459 100.016 43.6871 100.006L44.0794 98.7679L43.1449 98.4443L43.2821 98.0104L44.714 98.5043L44.0985 100.453H44.1017V100.456ZM48.4199 97.9571L47.8714 97.8069L47.8777 97.7769C47.8969 97.7035 47.8841 97.6267 47.849 97.5399C47.8108 97.4532 47.7406 97.3798 47.6385 97.3164C47.5333 97.2563 47.4185 97.2063 47.2845 97.1695C47.0135 97.0961 46.7966 97.1128 46.6308 97.2163C46.4649 97.323 46.3597 97.4665 46.3182 97.6467C46.2959 97.7669 46.2991 97.8903 46.3214 98.0138C46.3565 98.1406 46.4203 98.2507 46.5096 98.3508C46.5989 98.4509 46.7583 98.5944 46.988 98.7813L47.2176 98.9715C47.5843 99.2718 47.8108 99.5454 47.9001 99.789C47.9862 100.033 47.9989 100.276 47.9383 100.516C47.8809 100.737 47.7725 100.937 47.6067 101.114C47.4408 101.291 47.2463 101.407 47.0198 101.461C46.7934 101.511 46.5128 101.494 46.1938 101.401C45.8781 101.314 45.623 101.204 45.4316 101.067C45.2403 100.93 45.1127 100.757 45.0489 100.547C44.9819 100.336 44.9787 100.123 45.033 99.9058L45.0393 99.8791L45.5879 100.029L45.5815 100.059C45.5209 100.306 45.5624 100.496 45.6995 100.64C45.8398 100.78 46.0503 100.89 46.315 100.964C46.551 101.027 46.7711 101.01 46.9688 100.907C47.1697 100.807 47.2973 100.637 47.3579 100.396C47.4057 100.203 47.3738 100.023 47.2654 99.8624C47.1538 99.7023 46.9752 99.5221 46.7201 99.3219L46.5223 99.1684C46.264 98.9548 46.0758 98.7679 45.9578 98.6011C45.843 98.4342 45.7665 98.2641 45.7314 98.0905C45.6963 97.9137 45.7027 97.7335 45.7505 97.5433C45.8334 97.2096 46.0184 96.9593 46.2991 96.8025C46.5733 96.6356 46.9561 96.6156 47.4376 96.7491C47.8777 96.8692 48.168 97.0261 48.3051 97.2496C48.4422 97.4699 48.4805 97.6934 48.4231 97.9237V97.9304L48.4199 97.9571ZM51.5294 102.485L50.9713 102.372L51.3476 100.33L49.3767 99.9325L49.0004 101.971L48.4422 101.861L49.2714 97.3698L49.8296 97.4832L49.4596 99.482L51.4305 99.8825L51.8005 97.8803L52.3586 97.9938L51.5294 102.485ZM53.0507 102.709L52.4894 102.625L53.1113 98.1006L53.6726 98.184L53.0507 102.709ZM57.2445 103.179L56.6896 103.123L54.9897 99.6756L54.8398 99.2918L54.8175 99.6589L54.5273 102.909L54.0042 102.859L54.4125 98.3074L54.9738 98.3608L56.6704 101.795L56.8203 102.172L56.8427 101.811L57.1329 98.5744L57.6559 98.6244L57.2445 103.179ZM63.1797 102.695C63.0648 102.912 62.899 103.086 62.6821 103.213C62.4589 103.343 62.1814 103.41 61.8466 103.416C61.534 103.416 61.247 103.373 60.9855 103.276C60.7271 103.179 60.5294 103.029 60.4018 102.816C60.2743 102.605 60.2041 102.248 60.1977 101.744L60.1595 98.7246L60.7271 98.7179L60.7654 101.661C60.7718 102.088 60.8133 102.375 60.8962 102.522C60.9791 102.665 61.1035 102.776 61.2725 102.849C61.4415 102.922 61.6329 102.959 61.8434 102.956C62.0411 102.956 62.2229 102.912 62.3728 102.832C62.5291 102.752 62.6407 102.629 62.7172 102.465C62.7906 102.295 62.8256 101.948 62.8161 101.421L62.7842 98.6912L63.3072 98.6812L63.3455 101.568C63.3455 102.102 63.2977 102.475 63.1797 102.695ZM67.0163 102.966L64.7551 99.8925L64.5415 99.5421L64.5829 99.9092L64.8508 103.163L64.3246 103.209L63.9515 98.6545L64.5159 98.6011L66.7707 101.661L66.9812 102.005L66.9398 101.648L66.6751 98.4075L67.1981 98.3608L67.5712 102.916L67.0163 102.966ZM68.528 102.772L67.938 98.2374L68.5025 98.1606L69.0925 102.689L68.528 102.772ZM71.9181 102.198L71.3536 102.308L68.9298 98.1339L69.539 98.0138L71.5609 101.514L72.3455 97.4632L72.8653 97.3598L71.9181 102.198ZM74.3324 101.674L73.2512 97.2463L75.6432 96.619L75.7612 97.0928L73.921 97.5833L74.2622 98.9815L75.8696 98.551L75.9748 98.9948L74.3675 99.422L74.7629 101.037L76.753 100.51L76.871 100.997L74.3324 101.674ZM79.904 100.019L78.9791 99.0649C78.759 98.8313 78.5039 98.6511 78.2169 98.5177L77.6683 98.6979L78.236 100.57L77.6938 100.75L76.3735 96.4054L77.6651 95.9783C77.9809 95.8715 78.2296 95.8415 78.421 95.8848C78.6091 95.9282 78.775 96.0217 78.9249 96.1718C79.0748 96.3186 79.18 96.5022 79.2438 96.7124C79.298 96.8826 79.3108 97.0461 79.298 97.2229C79.2821 97.3998 79.2342 97.57 79.1609 97.7335C79.0875 97.897 78.944 98.0672 78.7367 98.2474C78.842 98.2707 78.9249 98.2974 78.9823 98.3275C79.0397 98.3575 79.1194 98.4176 79.2151 98.501C79.3108 98.5811 79.3969 98.6612 79.4734 98.7379L80.5259 99.8124L79.904 100.019ZM83.495 98.0839C83.46 98.3241 83.3643 98.5377 83.208 98.7179C83.0517 98.8981 82.8125 99.0516 82.5032 99.1784C82.2002 99.2985 81.9291 99.3619 81.6963 99.3686C81.4667 99.3719 81.2626 99.3085 81.0936 99.175C80.9213 99.0416 80.8001 98.8747 80.7236 98.6678L80.7172 98.6411L81.2466 98.4309L81.2562 98.4576C81.3423 98.6945 81.4826 98.828 81.6772 98.858C81.8717 98.8881 82.1013 98.8514 82.3629 98.7446C82.5957 98.6511 82.7519 98.5043 82.8572 98.3008C82.9656 98.0939 82.9752 97.877 82.8923 97.6467C82.8221 97.4599 82.7041 97.3331 82.5319 97.2663C82.3533 97.2029 82.1045 97.1662 81.7888 97.1595H81.5432C81.2084 97.1462 80.9468 97.1062 80.7587 97.0428C80.5705 96.976 80.4142 96.8959 80.293 96.7758C80.1687 96.6557 80.073 96.5055 80.006 96.3186C79.888 95.995 79.9008 95.6779 80.0379 95.371C80.175 95.064 80.478 94.8137 80.9405 94.6302C81.3678 94.46 81.6963 94.4233 81.9323 94.52C82.1651 94.6168 82.3214 94.7736 82.4011 94.9939L82.4107 95.0206L81.8781 95.2308L81.8685 95.2041C81.843 95.134 81.792 95.0773 81.7123 95.0306C81.6325 94.9839 81.5337 94.9672 81.4188 94.9805C81.3008 94.9939 81.1797 95.0239 81.0489 95.0773C80.7874 95.1808 80.6215 95.3242 80.5418 95.5111C80.4685 95.7013 80.4621 95.8782 80.5259 96.0517C80.5673 96.1718 80.6375 96.2686 80.7363 96.3487C80.8352 96.4288 80.9468 96.4821 81.0744 96.5088C81.2052 96.5355 81.4125 96.5589 81.7027 96.5722L81.9929 96.5856C82.4585 96.6056 82.7838 96.6924 82.9943 96.8392C83.2016 96.976 83.3451 97.1629 83.4313 97.3965C83.5078 97.61 83.5301 97.8403 83.495 98.0839ZM84.5092 98.184L82.803 93.9861L83.326 93.7526L85.0322 97.9504L84.5092 98.184ZM86.882 97.0961L85.214 93.3822L83.8682 94.0429L83.68 93.6257L86.866 92.0641L87.051 92.4812L85.7275 93.1319L87.3923 96.8559L86.882 97.0961ZM90.2339 95.371L89.2643 93.4689L86.9298 92.0307L87.5135 91.7037L89.309 92.7982L89.4334 90.6359L89.9181 90.3656L89.7651 93.1919L90.7314 95.0906L90.2339 95.371Z" fill="white"/>
</svg>
