<svg width="120" height="120" viewBox="0 0 120 120" fill="none" xmlns="http://www.w3.org/2000/svg">
<path d="M60 105C35.1857 105 15 84.8143 15 60C15 35.1857 35.1857 15 60 15C84.8143 15 105 35.1857 105 60C105 84.8143 84.8143 105 60 105ZM60 16.9459C36.2598 16.9459 16.9459 36.2598 16.9459 60C16.9459 83.7402 36.2598 103.059 60 103.059C83.7402 103.059 103.054 83.7454 103.054 60C103.054 36.2546 83.7402 16.9459 60 16.9459Z" fill="white"/>
<path d="M60 90.128C43.6024 90.128 30.2612 76.6103 30.2612 60C30.2612 43.3896 43.6024 29.872 60 29.872C76.3976 29.872 89.7388 43.3896 89.7388 60C89.7388 76.6103 76.3976 90.128 60 90.128ZM60 31.8127C44.6765 31.8127 32.2071 44.4586 32.2071 59.9948C32.2071 75.531 44.6765 88.1769 60 88.1769C75.3234 88.1769 87.7929 75.531 87.7929 59.9948C87.7929 44.4586 75.3234 31.8127 60 31.8127Z" fill="white"/>
<path d="M42.2325 40.3488V67.4671C42.2325 67.4671 42.3726 73.144 46.1035 77.1552C46.1035 77.1552 50.3949 81.5815 54.4061 82.5519C54.4061 82.5519 58.8324 83.242 60.2179 85.5979H60.6901C62.0756 83.2472 66.502 82.5519 66.502 82.5519C70.5131 81.5815 74.8045 77.1552 74.8045 77.1552C78.5407 73.144 78.6808 67.4671 78.6808 67.4671V40.3488H42.2325ZM75.3857 43.9189V52.5484H62.9993V46.4875H57.8361V52.5484H45.8026V43.9189H75.3909H75.3857ZM46.6069 69.8541C45.8441 67.7214 45.7974 65.9363 45.7974 65.9363V57.7116H56.8917C56.3209 60.5189 54.2089 66.9378 46.6069 69.8541ZM65.5005 78.1775C65.5005 78.1775 61.9044 78.7379 60.7836 80.6475H60.3996C59.2787 78.7379 55.6827 78.1775 55.6827 78.1775C53.1763 77.5755 50.5454 75.3131 49.4609 74.296C51.303 73.3775 57.9762 69.7503 60.5085 64.2862C63.0927 69.8593 69.989 73.5228 71.6703 74.3479C70.5495 75.3857 67.9653 77.5807 65.5056 78.1723L65.5005 78.1775ZM74.5555 69.9112C66.8289 67.0261 64.6961 60.5397 64.1253 57.7116H75.3857V65.9363C75.3857 65.9363 75.339 67.7525 74.5555 69.9112Z" fill="white"/>
<path d="M56.9799 18.9801L55.2312 18.9489L55.1274 24.4649L60.3321 24.5687L60.3632 23.0224L56.9021 22.9549L56.9488 20.5316L60.4099 20.5991L60.4411 19.0475L56.9799 18.9801Z" fill="white"/>
<path d="M64.4211 19.115L64.3848 20.9052L63.6479 20.8896L63.6843 19.0994L61.9303 19.0631L61.7487 28.6162L63.5026 28.6474L63.622 22.2544L64.3588 22.2699L64.2395 28.6629L65.9882 28.6993L66.1699 19.1461L64.4211 19.115Z" fill="white"/>
<path d="M91.5394 48.2415L93.8123 47.0843L92.9509 45.3823L90.6728 46.5394L89.6402 44.5053L91.9182 43.3481L91.0568 41.6461L88.7788 42.8033L87.8863 41.0545L86.5112 41.7499L91.5394 51.6455L92.9145 50.945L91.5394 48.2415Z" fill="white"/>
<path d="M93.9368 48.008L94.7359 49.5647L97.8753 47.9716L97.8805 47.9768L99.2556 47.2763L94.5335 37.9878L93.1584 38.6883L97.0866 46.4045L93.9368 48.008Z" fill="white"/>
<path d="M29.2238 39.0542L23.8682 48.8649L25.2209 49.6034L30.5765 39.7927L29.2238 39.0542Z" fill="white"/>
<path d="M30.998 40.3021L25.8504 49.7411L27.2048 50.4832L31.517 42.575L33.193 43.4882L34.0285 41.9471L31.0811 40.3384L31.0759 40.3436L30.998 40.3021Z" fill="white"/>
<path d="M27.8586 40.5771L28.6993 39.0412L25.7467 37.4274L25.7415 37.4377L25.6948 37.4066L20.5472 46.8456L21.9015 47.5876L26.2137 39.6794L27.8586 40.5771Z" fill="white"/>
<path d="M45.0709 25.4405L41.2932 27.9935L40.8574 27.3501L44.3756 24.9735L43.6128 23.8474L36.1716 28.8757L35.8135 28.3464L43.2547 23.3182L42.4919 22.1921L33.5822 28.2063L34.345 29.3375L34.3606 29.3271L34.7186 29.8616H34.7031L35.4659 30.998L35.4762 30.9877L35.5074 31.0292L36.9603 30.0484L36.9292 30.0069L39.2176 28.4606L39.6535 29.104L35.8395 31.683L36.6023 32.809L40.7588 30.0017C39.9337 30.8476 39.7417 32.1189 40.3748 33.0529C41.1064 34.1426 42.6684 34.371 43.8567 33.5718C45.045 32.7675 45.4134 31.2367 44.6765 30.147C44.0435 29.213 42.7981 28.9068 41.7032 29.3635L45.8285 26.5769L45.0657 25.4509L45.0709 25.4405ZM43.3637 31.024C43.6543 31.4495 43.509 32.0462 43.042 32.3628C42.5801 32.6741 41.973 32.5859 41.6824 32.1604C41.397 31.7349 41.5371 31.133 42.0041 30.8216C42.466 30.5103 43.0731 30.5985 43.3637 31.024Z" fill="white"/>
<path d="M74.571 28.9587L81.6542 33.9558L80.2531 35.9433L81.6853 36.9551L83.9737 33.7068L75.4636 27.6978L74.571 28.9587Z" fill="white"/>
<path d="M86.5164 30.1003L87.1909 29.1455L85.7639 28.1336L83.0033 32.0411L84.4355 33.0529L85.629 31.3665L86.5734 32.0307L87.466 30.7697L86.5164 30.1003Z" fill="white"/>
<path d="M77.4925 25.4509C76.7038 26.5665 77.0566 28.17 78.2761 29.0262C79.4955 29.8876 81.1197 29.68 81.9084 28.5643C82.1212 28.2582 82.2509 27.9209 82.3028 27.5732L82.9255 28.0143L83.7091 26.9038L81.8773 25.6117L82.3962 24.8697L80.8395 23.7696L80.3206 24.5116L78.3798 23.1417L77.5963 24.2522L78.2968 24.74C77.9855 24.906 77.7053 25.1447 77.4925 25.4457V25.4509ZM79.1426 27.8015C78.6652 27.4643 78.5303 26.8416 78.8417 26.4057C79.1478 25.9698 79.7861 25.8868 80.2583 26.2241C80.7305 26.5562 80.8706 27.184 80.5593 27.6199C80.2531 28.0506 79.62 28.1336 79.1426 27.8015Z" fill="white"/>
<path d="M96.8064 57.1927C97.7767 57.1927 98.5655 56.4091 98.5655 55.4336C98.5655 54.458 97.7767 53.6745 96.8064 53.6745C95.836 53.6745 95.0473 54.458 95.0473 55.4336C95.0473 56.4091 95.836 57.1927 96.8064 57.1927Z" fill="white"/>
<path d="M23.889 57.1927C24.8593 57.1927 25.6481 56.4091 25.6481 55.4336C25.6481 54.458 24.8593 53.6745 23.889 53.6745C22.9186 53.6745 22.1298 54.458 22.1298 55.4336C22.1298 56.4091 22.9186 57.1927 23.889 57.1927Z" fill="white"/>
<path d="M18.2743 62.1068L28.1959 60.9444L28.7356 65.5523L27.0854 65.7443L26.7274 62.6672L24.3352 62.9474L24.6725 65.8118L23.0224 66.0038L22.6851 63.1342L18.456 63.6324L18.2743 62.0964V62.1068Z" fill="white"/>
<path d="M18.8659 67.3478L29.187 67.161L29.68 68.9253L20.734 74.021L20.3137 72.5265L22.2129 71.4627L21.4449 68.7177L19.2603 68.7748L18.8607 67.353L18.8659 67.3478ZM23.7073 70.6325L27.5421 68.5413V68.5205L23.1521 68.6554L23.7073 70.6325Z" fill="white"/>
<path d="M21.8341 76.6882L21.1647 75.2975L30.1626 70.9594L31.491 73.7148C32.0151 74.8357 32.067 76.216 30.2352 77.0981C29.0625 77.6637 28.0299 77.4873 27.4072 76.8023L27.3812 76.8127C27.7341 77.9543 26.826 78.3954 25.6325 79.1167C25.0928 79.454 24.055 80.0196 23.6866 80.5229L22.9497 78.987C23.6918 78.4888 24.4701 78.0322 25.2485 77.5807C25.7311 77.3057 26.3745 76.8854 26.1774 76.4132L25.4664 74.9395L21.8393 76.6882H21.8341ZM26.9557 74.2182L27.5161 75.3857C27.8223 75.9928 28.419 76.1433 29.2182 75.7593C30.0121 75.3753 30.1782 74.8512 29.8979 74.2389L29.3323 73.0662L26.9557 74.2182Z" fill="white"/>
<path d="M34.4229 78.4836L37.4896 82.199L36.2079 83.2576L34.1219 80.7305L32.3161 82.2198L34.2672 84.586L32.9855 85.6446L31.0344 83.2732L28.9743 84.97L31.1278 87.5801L29.8461 88.6387L26.7118 84.8351L34.4177 78.4836H34.4229Z" fill="white"/>
<path d="M30.5881 89.5468L38.8647 83.3873L40.2917 84.5341L35.99 93.8849L34.7809 92.9094L35.6994 90.9375L33.4784 89.1576L31.7349 90.4705L30.5881 89.552V89.5468ZM36.4362 89.4015L38.3354 85.463L38.3199 85.4474L34.8328 88.1094L36.4414 89.4015H36.4362Z" fill="white"/>
<path d="M43.7996 90.403C44.2043 89.4742 44.0798 88.8567 43.4156 88.5194C42.9071 88.2651 42.2065 88.3689 41.8122 89.1524C41.3244 90.1176 41.89 90.5379 42.3466 91.005C43.1509 91.8456 44.3963 92.9561 43.4882 94.7463C42.3674 96.9517 40.5979 97.0191 39.2176 96.3238C37.7491 95.5818 37.1108 94.2637 38.2939 92.0428L39.7002 92.7485C39.1501 93.7085 39.2176 94.5854 39.9389 94.9487C40.4889 95.2289 41.3399 95.3586 41.8173 94.409C42.3466 93.3608 41.4697 92.8263 41.0182 92.3489C40.2762 91.5861 39.3369 90.3978 40.1361 88.8203C41.1687 86.781 42.9745 86.5631 44.2874 87.2325C45.5276 87.8603 46.0257 89.2925 45.1176 91.0776L43.7944 90.4082L43.7996 90.403Z" fill="white"/>
<path d="M46.8404 89.0435L52.289 91.1035L51.7026 92.6551L49.6996 91.8975L46.747 99.6863L45.3044 99.1415L48.257 91.3526L46.254 90.595L46.8404 89.0435Z" fill="white"/>
<path d="M61.6657 92.2867L61.0534 98.5136C60.7939 101.16 59.2943 102.307 57.5611 102.13C55.8279 101.959 54.5826 100.543 54.8472 97.9013L55.4595 91.6743L56.9955 91.8248L56.461 97.2267C56.295 98.908 56.2016 100.439 57.7064 100.589C59.2112 100.74 59.424 99.2193 59.5901 97.538L60.1245 92.1414L61.6605 92.2918L61.6657 92.2867Z" fill="white"/>
<path d="M68.6139 100.947L64.0734 93.4386L64.0579 93.4698L65.817 101.554L64.4056 101.861L62.2832 92.0999L64.5197 91.6121L68.8682 98.7056L68.8838 98.6745L67.2181 91.0257L68.6295 90.7195L70.7518 100.48L68.6087 100.942L68.6139 100.947Z" fill="white"/>
<path d="M73.8912 99.4892L72.4331 99.9977L69.1484 90.5639L70.6065 90.0553L73.8912 99.4892Z" fill="white"/>
<path d="M71.0839 89.9464L72.594 89.1991L77.7675 95.4209H77.7831L75.9773 87.523L77.342 86.8433L79.4021 96.9724L77.8921 97.7197L71.0839 89.9464Z" fill="white"/>
<path d="M77.6118 86.6824L81.457 83.7765L82.4585 85.0997L79.8432 87.0768L81.2546 88.9397L83.6987 87.0923L84.7002 88.4156L82.2561 90.2681L83.8699 92.3956L86.5682 90.3511L87.5698 91.6743L83.6364 94.6477L77.6067 86.6824H77.6118Z" fill="white"/>
<path d="M90.3511 88.9449L89.3289 90.0969L81.8669 83.4548L83.8959 81.1716C84.7261 80.2583 85.9819 79.6823 87.4971 81.0367C88.4675 81.9032 88.7062 82.9255 88.3118 83.7609L88.3326 83.7765C89.2562 83.0137 90.0086 83.6831 91.1295 84.5082C91.6484 84.8766 92.5669 85.6135 93.174 85.7691L92.0428 87.0405C91.2955 86.5527 90.5794 86.0026 89.8582 85.4578C89.4171 85.1205 88.784 84.6898 88.426 85.0479L87.3414 86.2673L90.3459 88.9449H90.3511ZM86.1064 85.162L86.9678 84.1968C87.4089 83.6831 87.3207 83.0708 86.6565 82.4844C85.9975 81.8929 85.4526 81.9448 84.9908 82.4377L84.1294 83.4029L86.1012 85.1568L86.1064 85.162Z" fill="white"/>
<path d="M90.1539 77.0877C89.251 76.6363 88.6231 76.7245 88.2495 77.368C87.9641 77.8609 88.0368 78.5666 88.7892 79.0025C89.7232 79.5422 90.1799 79.0025 90.6677 78.5718C91.5498 77.8194 92.7329 76.6415 94.4661 77.643C96.6092 78.8832 96.5729 80.6579 95.7997 81.9915C94.9746 83.4133 93.6254 83.9737 91.472 82.6712L92.2607 81.3117C93.1896 81.9136 94.0613 81.8929 94.4661 81.1975C94.7774 80.663 94.9591 79.8224 94.0354 79.2879C93.0183 78.7016 92.432 79.5474 91.9286 79.9677C91.1243 80.663 89.8841 81.5348 88.3533 80.6475C86.3763 79.5059 86.2621 77.6897 87.0041 76.4132C87.7047 75.2041 89.1576 74.7942 90.8908 75.8008L90.1487 77.0826L90.1539 77.0877Z" fill="white"/>
<path d="M98.2022 76.4806L97.6055 77.9076L88.3896 74.0521L88.9864 72.6251L98.2022 76.4806Z" fill="white"/>
<path d="M89.3808 72.3708L91.0465 66.7874L92.6395 67.2596L92.0272 69.3145L100.008 71.6963L99.567 73.1752L91.5861 70.7934L90.9738 72.8482L89.3808 72.376V72.3708Z" fill="white"/>
<path d="M98.0258 65.2306L90.9998 66.5538L91.2852 64.774L96.0436 64.0371L91.7626 61.8162L92.0116 60.2543L98.2645 63.7102L101.487 64.2291L101.243 65.7547L98.0206 65.2358L98.0258 65.2306Z" fill="white"/>
</svg>
